PathFileType	4	(X/Y/Z)	/Users/itak/Documents/Research/Walk-IL/dataset/trc/00349_00011.trc
DataRate	CameraRate	NumFrames	NumMarkers	Units	OrigDataRate	OrigDataStartFrame	OrigNumFrames
100.000000	100.000000	4	59	mm	100.000000	572	654
Frame#	Time	RPSI			LPSI			L3			STRN			T10			C7			CLAV			RBAK			LBAK			LSHO			LUPA			LAEL			LAOL			LWTS			LWPS			LFRA			LIFD			LHPS			LHTS			RSHO			RUPA			RAEL			RAOL			RWTS			RWPS			RFRA			RHTS			RHPS			RBHD			LFHD			RFHD			LBHD			RASI			LASI			LKNE			LTHI			LANK			LTIP			LTOE			LMT1			LMT5			LHEE			RKNE			RANK			RTIP			RTOE			RMT1			RMT5			RHEE			RIFD			LHIP			RTHI			RHIP			*53			*54			*55			*56			*57			*58			
		X1	Y1	Z1	X2	Y2	Z2	X3	Y3	Z3	X4	Y4	Z4	X5	Y5	Z5	X6	Y6	Z6	X7	Y7	Z7	X8	Y8	Z8	X9	Y9	Z9	X10	Y10	Z10	X11	Y11	Z11	X12	Y12	Z12	X13	Y13	Z13	X14	Y14	Z14	X15	Y15	Z15	X16	Y16	Z16	X17	Y17	Z17	X18	Y18	Z18	X19	Y19	Z19	X20	Y20	Z20	X21	Y21	Z21	X22	Y22	Z22	X23	Y23	Z23	X24	Y24	Z24	X25	Y25	Z25	X26	Y26	Z26	X27	Y27	Z27	X28	Y28	Z28	X29	Y29	Z29	X30	Y30	Z30	X31	Y31	Z31	X32	Y32	Z32	X33	Y33	Z33	X34	Y34	Z34	X35	Y35	Z35	X36	Y36	Z36	X37	Y37	Z37	X38	Y38	Z38	X39	Y39	Z39	X40	Y40	Z40	X41	Y41	Z41	X42	Y42	Z42	X43	Y43	Z43	X44	Y44	Z44	X45	Y45	Z45	X46	Y46	Z46	X47	Y47	Z47	X48	Y48	Z48	X49	Y49	Z49	X50	Y50	Z50	X51	Y51	Z51	X52	Y52	Z52	X53	Y53	Z53	X54	Y54	Z54	X55	Y55	Z55	X56	Y56	Z56	X57	Y57	Z57	X58	Y58	Z58	X59	Y59	Z59	

573	5.72	638.3930053710938	973.6113891601562	667.2822875976562	638.8262329101562	974.4503784179688	796.0767211914062	638.9617309570312	1026.756225585938	725.7412719726562	421.1606140136719	1220.939208984375	730.1659545898438	655.1477661132812	1146.132934570312	730.8048706054688	622.9899291992188	1396.519897460938	738.0526733398438	466.0818481445312	1346.25439453125	729.6402587890625	666.52587890625	1254.041259765625	676.1920166015625	631.4484252929688	1361.414672851562	841.4005737304688	546.1795043945312	1384.359985351562	894.072021484375	554.2009887695312	1264.54833984375	965.3823852539062	511.8166198730469	1064.50341796875	984.5550537109375	576.154296875	1041.074829101562	934.3297729492188	388.6199645996094	836.8029174804688	936.372314453125	420.6572570800781	821.6976928710938	997.4850463867188	482.9838256835938	962.5772094726562	993.336181640625	346.028076171875	689.0668334960938	934.0960083007812	411.3928527832031	750.3287353515625	990.5910034179688	361.3717651367188	763.764404296875	952.2994995117188	571.6658935546875	1381.403564453125	573.9583740234375	583.4319458007812	1314.623779296875	513.3713989257812	573.6040649414062	1046.736083984375	479.2998657226562	603.2702026367188	1040.090576171875	568.7388916015625	459.6441040039062	817.1943969726562	508.079345703125	504.3106689453125	805.2723999023438	446.4811401367188	549.4859619140625	980.20703125	467.0397644042969	439.8552551269531	713.85546875	489.5744323730469	494.0919189453125	719.8711547851562	445.7748107910156	581.1101684570312	1603.529663085938	647.8903198242188	411.6042175292969	1620.109741210938	767.6793212890625	420.1976623535156	1617.437866210938	667.018798828125	595.5054321289062	1602.450927734375	792.2506713867188	451.2095031738281	949.7736206054688	603.5140380859375	433.8757019042969	946.1538696289062	843.7206420898438	504.3921203613281	463.0272521972656	910.2105712890625	501.93798828125	601.2846069335938	912.31884765625	609.9210205078125	42.61023712158203	915.7091064453125	553.8735961914062	248.4887237548828	925.6051025390625	399.3662414550781	42.53994369506836	870.4586181640625	462.7665405273438	32.02021026611328	821.7817993164062	484.5946960449219	37.47626495361328	934.929443359375	636.3175048828125	37.81543350219727	845.12060546875	505.993896484375	455.7347717285156	565.1836547851562	600.5942993164062	53.00773620605469	564.4623413085938	509.3101196289062	338.1634826660156	573.5857543945312	413.411376953125	43.93065643310547	626.6997680664062	473.578857421875	36.12111663818359	663.2055053710938	495.7055358886719	38.22997665405273	549.037109375	654.7781372070312	51.14416885375977	608.1722412109375	462.9208984375	642.9837646484375	496.3096618652344	554.0177612304688	918.5765380859375	901.7681274414062	478.1075744628906	717.462890625	550.62451171875	548.1107177734375	919.5186767578125	559.0208129882812	nan	nan	nan	nan	nan	nan	nan	nan	nan	nan	nan	nan	nan	nan	nan	nan	nan	nan	
574	5.73	638.209228515625	973.5812377929688	669.340576171875	638.3139038085938	974.3896484375	798.1287841796875	638.7263793945312	1026.647583007812	727.7596435546875	421.2086181640625	1221.1103515625	731.4957275390625	655.1436767578125	1146.019653320312	732.8262939453125	623.21826171875	1396.417358398438	739.9882202148438	466.2185363769531	1346.390014648438	731.112060546875	666.71044921875	1253.917236328125	678.2634887695312	631.3093872070312	1361.264404296875	843.4005737304688	545.9251708984375	1384.319946289062	895.8331298828125	553.3878784179688	1264.3828125	966.9432373046875	510.8250427246094	1064.385131835938	985.8551635742188	574.8799438476562	1040.949340820312	935.399169921875	388.6640625	835.6790161132812	938.6264038085938	421.0880737304688	821.1370849609375	999.7291870117188	482.3006591796875	962.5387573242188	994.7597045898438	347.0485534667969	688.3170776367188	937.0940551757812	412.3598022460938	749.666015625	993.1475830078125	362.0929565429688	762.30517578125	955.2882690429688	572.34765625	1381.430419921875	575.7742309570312	584.18701171875	1314.660766601562	515.2225341796875	574.3705444335938	1046.718383789062	481.32470703125	603.8282470703125	1040.200317382812	570.8052368164062	459.5892639160156	817.7108154296875	510.425048828125	504.4203796386719	805.2791137695312	449.0138244628906	550.2144775390625	980.1755981445312	469.2115173339844	438.8548278808594	714.6119995117188	491.9630432128906	493.373291015625	719.992431640625	448.4738159179688	581.3472900390625	1603.646118164062	649.6865844726562	411.6507568359375	1619.990478515625	769.244384765625	420.3816528320312	1617.375854492188	668.5855102539062	595.525146484375	1602.5361328125	794.093505859375	451.406982421875	949.888671875	605.064453125	433.2057495117188	946.2850952148438	845.120849609375	504.7347412109375	463.1023254394531	911.0149536132812	501.6241455078125	601.1930541992188	913.3099975585938	609.932861328125	42.6044921875	915.7153930664062	553.9985961914062	248.4113464355469	926.0516357421875	399.3669738769531	42.55405807495117	870.39697265625	462.7957458496094	32.05297470092773	821.7863159179688	484.5829162597656	37.47881698608398	934.9035034179688	636.3604736328125	37.82382583618164	845.1737670898438	507.0432434082031	455.9642333984375	565.7781372070312	600.64013671875	52.94241333007812	564.4121704101562	510.1739196777344	338.468505859375	573.96044921875	413.5062255859375	44.09066390991211	626.34814453125	473.5852661132812	36.24841690063477	663.0082397460938	495.7997436523438	38.18680572509766	548.851318359375	654.7939453125	51.06764602661133	608.1841430664062	461.0526123046875	643.5445556640625	498.9403686523438	553.1751098632812	918.8304443359375	903.7462768554688	478.5134887695312	717.7398681640625	551.7191772460938	549.5252075195312	919.6240234375	561.2313232421875	nan	nan	nan	nan	nan	nan	nan	nan	nan	nan	nan	nan	nan	nan	nan	nan	nan	nan	
575	5.74	638.0050659179688	973.5748901367188	671.2828369140625	637.8062133789062	974.3392944335938	800.0673217773438	638.4951782226562	1026.550415039062	729.6622314453125	421.2589416503906	1221.28515625	732.7235717773438	655.1394653320312	1145.900512695312	734.7490844726562	623.4577026367188	1396.317993164062	741.8700561523438	466.3548889160156	1346.52685546875	732.5065307617188	666.9105224609375	1253.805419921875	680.2492065429688	631.185302734375	1361.115844726562	845.3237915039062	545.6861572265625	1384.274658203125	897.5347290039062	552.603515625	1264.226684570312	968.4507446289062	509.9276428222656	1064.2548828125	987.1134033203125	573.7506103515625	1040.858276367188	936.457763671875	388.8605346679688	834.5569458007812	940.8005981445312	421.6369323730469	820.5801391601562	1001.868469238281	481.7368469238281	962.4954833984375	996.1300048828125	348.2203979492188	687.5886840820312	940.0148315429688	413.4908447265625	749.029296875	995.649169921875	363.0264282226562	760.8060913085938	958.2130737304688	573.049072265625	1381.48779296875	577.5269775390625	584.9600830078125	1314.721435546875	516.9985961914062	575.0845336914062	1046.727172851562	483.3020935058594	604.354248046875	1040.335815429688	572.81591796875	459.4187622070312	818.2990112304688	512.7177734375	504.4448547363281	805.3034057617188	451.5357360839844	550.8892822265625	980.1724853515625	471.3485412597656	437.7125244140625	715.4559326171875	494.3388061523438	492.5379943847656	720.130859375	451.2162475585938	581.6033325195312	1603.7783203125	651.4149780273438	411.7102355957031	1619.863647460938	770.7486572265625	420.5872802734375	1617.3115234375	670.0833740234375	595.5574951171875	1602.632080078125	795.8703002929688	451.5758361816406	950.0218505859375	606.510498046875	432.5595092773438	946.4159545898438	846.421630859375	505.1469116210938	463.2013854980469	911.8115844726562	501.4096069335938	601.0755615234375	914.2748413085938	609.9481811523438	42.59409713745117	915.7289428710938	554.1813354492188	248.3569946289062	926.4986572265625	399.3607177734375	42.56538391113281	870.32861328125	462.8287048339844	32.09510040283203	821.7982177734375	484.5435485839844	37.47583770751953	934.8668823242188	636.4075927734375	37.84425354003906	845.2320556640625	508.0210266113281	456.2102661132812	566.29638671875	600.6673583984375	52.8952751159668	564.3646240234375	510.9893798828125	338.7779541015625	574.2886352539062	413.5643920898438	44.21768951416016	626.0299682617188	473.5761413574219	36.38432312011719	662.81201171875	495.8965148925781	38.14099884033203	548.672119140625	654.7984008789062	51.02745056152344	608.1812133789062	458.9866943359375	644.1864624023438	501.6186218261719	552.3255615234375	919.0075073242188	905.52783203125	478.9385986328125	718.0286865234375	552.6639404296875	550.8080444335938	919.748046875	563.2759399414062	nan	nan	nan	nan	nan	nan	nan	nan	nan	nan	nan	nan	nan	nan	nan	nan	nan	nan	
576	5.75	637.776611328125	973.58349609375	673.0950317382812	637.3014526367188	974.3008422851562	801.8760986328125	638.2720947265625	1026.454223632812	731.443359375	421.3103637695312	1221.459350585938	733.8574829101562	655.1318969726562	1145.775024414062	736.5748291015625	623.7007446289062	1396.223876953125	743.7028198242188	466.4931030273438	1346.656860351562	733.82861328125	667.1246337890625	1253.703979492188	682.1480712890625	631.0771484375	1360.971801757812	847.17041015625	545.4609375	1384.221801757812	899.1752319335938	551.8450317382812	1264.074584960938	969.905029296875	509.1208801269531	1064.093994140625	988.320556640625	572.7749633789062	1040.789672851562	937.5138549804688	389.1922912597656	833.44921875	942.88232421875	422.2772521972656	820.02880859375	1003.8916015625	481.2904663085938	962.4304809570312	997.4569702148438	349.5145263671875	686.8690795898438	942.8113403320312	414.7609558105469	748.4248657226562	998.0844116210938	364.1339111328125	759.3079833984375	961.0103149414062	573.760498046875	1381.563842773438	579.2144165039062	585.740478515625	1314.791625976562	518.7024536132812	575.7214965820312	1046.754150390625	485.2268676757812	604.8330078125	1040.485473632812	574.7706909179688	459.1481323242188	818.9310302734375	514.944580078125	504.3908081054688	805.3269653320312	454.0317993164062	551.4815063476562	980.1892700195312	473.4436645507812	436.4669494628906	716.3502197265625	496.6964111328125	491.6238403320312	720.2620849609375	453.9952392578125	581.8731079101562	1603.92041015625	653.0803833007812	411.7781066894531	1619.726806640625	772.1929931640625	420.8109130859375	1617.244262695312	671.517578125	595.6005249023438	1602.726806640625	797.5806274414062	451.6958618164062	950.1544799804688	607.84228515625	431.944091796875	946.5464477539062	847.624755859375	505.6026611328125	463.3313903808594	912.6028442382812	501.2863464355469	600.9562377929688	915.2322998046875	609.9669799804688	42.57689666748047	915.75244140625	554.4367065429688	248.3238525390625	926.96240234375	399.3535766601562	42.5777587890625	870.2633056640625	462.8642272949219	32.14840698242188	821.8185424804688	484.4803161621094	37.46553421020508	934.823486328125	636.4599609375	37.87472915649414	845.2985229492188	508.9348449707031	456.4582214355469	566.7648315429688	600.68017578125	52.86604309082031	564.3303833007812	511.7619934082031	339.0843200683594	574.5869140625	413.5907592773438	44.3089714050293	625.7456665039062	473.5458068847656	36.51698684692383	662.6233520507812	495.9914245605469	38.09693145751953	548.5100708007812	654.7916259765625	51.01076507568359	608.179443359375	456.7921752929688	644.8839111328125	504.3454284667969	551.4613037109375	919.1091918945312	907.1024169921875	479.3721313476562	718.29931640625	553.4827880859375	551.8975830078125	919.8723754882812	565.1202392578125	nan	nan	nan	nan	nan	nan	nan	nan	nan	nan	nan	nan	nan	nan	nan	nan	nan	nan	
